<svg id="visual" viewBox="0 0 1200 500" width="1200" height="500" xmlns="http://www.w3.org/2000/svg" xmlns:xlink="http://www.w3.org/1999/xlink" version="1.1"><rect x="0" y="0" width="1200" height="500" fill="#000000"></rect><path d="M0 373L22.2 339.8C44.3 306.7 88.7 240.3 133.2 240.8C177.7 241.3 222.3 308.7 266.8 321.7C311.3 334.7 355.7 293.3 400 285.5C444.3 277.7 488.7 303.3 533.2 319C577.7 334.7 622.3 340.3 666.8 321.8C711.3 303.3 755.7 260.7 800 262.3C844.3 264 888.7 310 933.2 310C977.7 310 1022.3 264 1066.8 232.7C1111.3 201.3 1155.7 184.7 1177.8 176.3L1200 168" fill="none" stroke-linecap="round" stroke-linejoin="miter" stroke="#e75eff" stroke-width="30"></path></svg>