<svg id="visual" viewBox="0 0 1500 300" width="1500" height="300" xmlns="http://www.w3.org/2000/svg" xmlns:xlink="http://www.w3.org/1999/xlink" version="1.1"><rect x="0" y="0" width="1500" height="300" fill="#000000"></rect><path d="M0 223L27.8 203.2C55.7 183.3 111.3 143.7 166.8 144C222.3 144.3 277.7 184.7 333.2 192.5C388.7 200.3 444.3 175.7 500 171C555.7 166.3 611.3 181.7 666.8 191C722.3 200.3 777.7 203.7 833.2 192.7C888.7 181.7 944.3 156.3 1000 157.3C1055.7 158.3 1111.3 185.7 1166.8 185.5C1222.3 185.3 1277.7 157.7 1333.2 138.8C1388.7 120 1444.3 110 1472.2 105L1500 100" fill="none" stroke-linecap="round" stroke-linejoin="miter" stroke="#e75eff" stroke-width="18"></path></svg>