<svg id="visual" viewBox="0 0 1200 100" width="1200" height="100" xmlns="http://www.w3.org/2000/svg" xmlns:xlink="http://www.w3.org/1999/xlink" version="1.1"><rect x="0" y="0" width="1200" height="100" fill="#000000"></rect><path d="M0 74L22.2 67.3C44.3 60.7 88.7 47.3 133.2 47.3C177.7 47.3 222.3 60.7 266.8 63.3C311.3 66 355.7 58 400 56.5C444.3 55 488.7 60 533.2 63C577.7 66 622.3 67 666.8 63.3C711.3 59.7 755.7 51.3 800 51.7C844.3 52 888.7 61 933.2 61C977.7 61 1022.3 52 1066.8 45.8C1111.3 39.7 1155.7 36.3 1177.8 34.7L1200 33" fill="none" stroke-linecap="round" stroke-linejoin="miter" stroke="#e75eff" stroke-width="8"></path></svg>