<svg id="visual" viewBox="0 0 1200 100" width="1200" height="100" xmlns="http://www.w3.org/2000/svg" xmlns:xlink="http://www.w3.org/1999/xlink" version="1.1"><rect x="0" y="0" width="1200" height="100" fill="#000000"></rect><path d="M0 45L12.5 46.2C25 47.3 50 49.7 75 53.7C100 57.7 125 63.3 150 64.7C175 66 200 63 225 56C250 49 275 38 300 41.2C325 44.3 350 61.7 375 64.7C400 67.7 425 56.3 450 53C475 49.7 500 54.3 525 52.8C550 51.3 575 43.7 600 47.7C625 51.7 650 67.3 675 74C700 80.7 725 78.3 750 69.2C775 60 800 44 825 35.3C850 26.7 875 25.3 900 30.7C925 36 950 48 975 50.3C1000 52.7 1025 45.3 1050 40.8C1075 36.3 1100 34.7 1125 35C1150 35.3 1175 37.7 1187.5 38.8L1200 40" fill="none" stroke-linecap="round" stroke-linejoin="miter" stroke="#e75eff" stroke-width="8"></path></svg>