<svg id="visual" viewBox="0 0 1400 300" width="1400" height="300" xmlns="http://www.w3.org/2000/svg" xmlns:xlink="http://www.w3.org/1999/xlink" version="1.1"><path d="M0 64L175 106L350 88L525 52L700 55L875 64L1050 82L1225 40L1400 103L1400 0L1225 0L1050 0L875 0L700 0L525 0L350 0L175 0L0 0Z" fill="#fef9a7"></path><path d="M0 94L175 127L350 106L525 79L700 79L875 82L1050 103L1225 70L1400 121L1400 101L1225 38L1050 80L875 62L700 53L525 50L350 86L175 104L0 62Z" fill="#f8cb64"></path><path d="M0 127L175 142L350 145L525 100L700 91L875 103L1050 118L1225 100L1400 133L1400 119L1225 68L1050 101L875 80L700 77L525 77L350 104L175 125L0 92Z" fill="#f7962f"></path><path d="M0 163L175 175L350 205L525 127L700 136L875 142L1050 196L1225 142L1400 181L1400 131L1225 98L1050 116L875 101L700 89L525 98L350 143L175 140L0 125Z" fill="#f77e21"></path><path d="M0 202L175 202L350 223L525 151L700 175L875 166L1050 217L1225 184L1400 211L1400 179L1225 140L1050 194L875 140L700 134L525 125L350 203L175 173L0 161Z" fill="#f7962f"></path><path d="M0 241L175 220L350 256L525 190L700 199L875 184L1050 238L1225 226L1400 253L1400 209L1225 182L1050 215L875 164L700 173L525 149L350 221L175 200L0 200Z" fill="#f8cb64"></path><path d="M0 301L175 301L350 301L525 301L700 301L875 301L1050 301L1225 301L1400 301L1400 251L1225 224L1050 236L875 182L700 197L525 188L350 254L175 218L0 239Z" fill="#fef9a7"></path></svg>