<svg id="visual" viewBox="0 0 1200 800" width="1200" height="800" xmlns="http://www.w3.org/2000/svg" xmlns:xlink="http://www.w3.org/1999/xlink" version="1.1"><path d="M0 185L86 249L171 121L257 177L343 137L429 313L514 185L600 313L686 129L771 201L857 305L943 249L1029 265L1114 121L1200 209L1200 0L1114 0L1029 0L943 0L857 0L771 0L686 0L600 0L514 0L429 0L343 0L257 0L171 0L86 0L0 0Z" fill="#000000"></path><path d="M0 201L86 305L171 153L257 249L343 233L429 409L514 233L600 353L686 249L771 265L857 377L943 313L1029 385L1114 193L1200 321L1200 207L1114 119L1029 263L943 247L857 303L771 199L686 127L600 311L514 183L429 311L343 135L257 175L171 119L86 247L0 183Z" fill="#7a0096"></path><path d="M0 297L86 369L171 281L257 337L343 353L429 473L514 321L600 489L686 369L771 369L857 513L943 377L1029 481L1114 321L1200 441L1200 319L1114 191L1029 383L943 311L857 375L771 263L686 247L600 351L514 231L429 407L343 231L257 247L171 151L86 303L0 199Z" fill="#c744e0"></path><path d="M0 345L86 417L171 337L257 433L343 401L429 529L514 369L600 569L686 409L771 473L857 537L943 465L1029 521L1114 401L1200 497L1200 439L1114 319L1029 479L943 375L857 511L771 367L686 367L600 487L514 319L429 471L343 351L257 335L171 279L86 367L0 295Z" fill="#e75eff"></path><path d="M0 473L86 521L171 465L257 505L343 609L429 561L514 465L600 673L686 513L771 505L857 601L943 657L1029 553L1114 513L1200 577L1200 495L1114 399L1029 519L943 463L857 535L771 471L686 407L600 567L514 367L429 527L343 399L257 431L171 335L86 415L0 343Z" fill="#c744e0"></path><path d="M0 657L86 657L171 729L257 697L343 777L429 673L514 641L600 753L686 777L771 697L857 713L943 737L1029 729L1114 753L1200 697L1200 575L1114 511L1029 551L943 655L857 599L771 503L686 511L600 671L514 463L429 559L343 607L257 503L171 463L86 519L0 471Z" fill="#7a0096"></path><path d="M0 801L86 801L171 801L257 801L343 801L429 801L514 801L600 801L686 801L771 801L857 801L943 801L1029 801L1114 801L1200 801L1200 695L1114 751L1029 727L943 735L857 711L771 695L686 775L600 751L514 639L429 671L343 775L257 695L171 727L86 655L0 655Z" fill="#000000"></path></svg>