<svg id="visual" viewBox="0 0 1200 400" width="1200" height="400" xmlns="http://www.w3.org/2000/svg" xmlns:xlink="http://www.w3.org/1999/xlink" version="1.1"><path d="M0 93L86 125L171 61L257 89L343 69L429 157L514 93L600 157L686 65L771 101L857 153L943 125L1029 133L1114 61L1200 105L1200 0L1114 0L1029 0L943 0L857 0L771 0L686 0L600 0L514 0L429 0L343 0L257 0L171 0L86 0L0 0Z" fill="#000000"></path><path d="M0 101L86 153L171 77L257 125L343 117L429 205L514 117L600 177L686 125L771 133L857 189L943 157L1029 193L1114 97L1200 161L1200 103L1114 59L1029 131L943 123L857 151L771 99L686 63L600 155L514 91L429 155L343 67L257 87L171 59L86 123L0 91Z" fill="#7a0096"></path><path d="M0 149L86 185L171 141L257 169L343 177L429 237L514 161L600 245L686 185L771 185L857 257L943 189L1029 241L1114 161L1200 221L1200 159L1114 95L1029 191L943 155L857 187L771 131L686 123L600 175L514 115L429 203L343 115L257 123L171 75L86 151L0 99Z" fill="#c744e0"></path><path d="M0 173L86 209L171 169L257 217L343 201L429 265L514 185L600 285L686 205L771 237L857 269L943 233L1029 261L1114 201L1200 249L1200 219L1114 159L1029 239L943 187L857 255L771 183L686 183L600 243L514 159L429 235L343 175L257 167L171 139L86 183L0 147Z" fill="#e75eff"></path><path d="M0 237L86 261L171 233L257 253L343 305L429 281L514 233L600 337L686 257L771 253L857 301L943 329L1029 277L1114 257L1200 289L1200 247L1114 199L1029 259L943 231L857 267L771 235L686 203L600 283L514 183L429 263L343 199L257 215L171 167L86 207L0 171Z" fill="#c744e0"></path><path d="M0 329L86 329L171 365L257 349L343 389L429 337L514 321L600 377L686 389L771 349L857 357L943 369L1029 365L1114 377L1200 349L1200 287L1114 255L1029 275L943 327L857 299L771 251L686 255L600 335L514 231L429 279L343 303L257 251L171 231L86 259L0 235Z" fill="#7a0096"></path><path d="M0 401L86 401L171 401L257 401L343 401L429 401L514 401L600 401L686 401L771 401L857 401L943 401L1029 401L1114 401L1200 401L1200 347L1114 375L1029 363L943 367L857 355L771 347L686 387L600 375L514 319L429 335L343 387L257 347L171 363L86 327L0 327Z" fill="#000000"></path></svg>