<svg id="visual" viewBox="0 0 2400 300" width="2400" height="300" xmlns="http://www.w3.org/2000/svg" xmlns:xlink="http://www.w3.org/1999/xlink" version="1.1"><rect x="0" y="0" width="2400" height="300" fill="#FEF9A7"></rect><path d="M0 231L21 222.3C42 213.7 84 196.3 126.2 186.7C168.3 177 210.7 175 252.8 181.2C295 187.3 337 201.7 379 203.2C421 204.7 463 193.3 505.2 199.3C547.3 205.3 589.7 228.7 631.8 218.5C674 208.3 716 164.7 758 165.8C800 167 842 213 884.2 233.5C926.3 254 968.7 249 1010.8 229C1053 209 1095 174 1137 177.2C1179 180.3 1221 221.7 1263 240C1305 258.3 1347 253.7 1389.2 249.3C1431.3 245 1473.7 241 1515.8 235.8C1558 230.7 1600 224.3 1642 228.3C1684 232.3 1726 246.7 1768.2 243.5C1810.3 240.3 1852.7 219.7 1894.8 200.3C1937 181 1979 163 2021 153C2063 143 2105 141 2147.2 151.8C2189.3 162.7 2231.7 186.3 2273.8 186.2C2316 186 2358 162 2379 150L2400 138" fill="none" stroke-linecap="round" stroke-linejoin="miter" stroke="#FCAF3C" stroke-width="40"></path></svg>