<svg id="visual" viewBox="0 0 1400 300" width="1400" height="300" xmlns="http://www.w3.org/2000/svg" xmlns:xlink="http://www.w3.org/1999/xlink" version="1.1"><rect x="0" y="0" width="1400" height="300" fill="#FEF9A7"></rect><path d="M0 199L16.7 179.7C33.3 160.3 66.7 121.7 100 120.7C133.3 119.7 166.7 156.3 200 182.3C233.3 208.3 266.7 223.7 300 205.5C333.3 187.3 366.7 135.7 400 122C433.3 108.3 466.7 132.7 500 146C533.3 159.3 566.7 161.7 600 163.8C633.3 166 666.7 168 700 156.7C733.3 145.3 766.7 120.7 800 116.5C833.3 112.3 866.7 128.7 900 147.3C933.3 166 966.7 187 1000 181.8C1033.3 176.7 1066.7 145.3 1100 149.5C1133.3 153.7 1166.7 193.3 1200 194.3C1233.3 195.3 1266.7 157.7 1300 142.2C1333.3 126.7 1366.7 133.3 1383.3 136.7L1400 140" fill="none" stroke-linecap="round" stroke-linejoin="miter" stroke="#FCAF3C" stroke-width="18"></path></svg>